<svg width="22" height="24" viewBox="0 0 22 24" fill="none" xmlns="http://www.w3.org/2000/svg">
<path d="M11.4089 0C11.866 0.0751406 12.3356 0.131496 12.7865 0.237945C16.2179 1.02066 18.804 4.01376 19.1546 7.52032C19.3049 9.04191 18.9041 10.407 18.2279 11.7282C17.6706 12.8052 16.9881 13.8071 16.2554 14.7714C16.2053 14.8403 16.1553 14.9091 16.0926 14.9905C16.4809 15.0907 16.8503 15.1784 17.2135 15.2848C18.2529 15.5854 19.2485 15.9862 20.1252 16.6436C20.7889 17.1446 21.3274 17.7457 21.5215 18.5785C21.7783 19.6743 21.39 20.576 20.6073 21.3274C19.7808 22.1226 18.7601 22.5985 17.6956 22.968C15.9361 23.5753 14.1077 23.8509 12.2542 23.9573C10.144 24.0763 8.0526 23.951 5.98623 23.5253C4.50221 23.2184 3.05575 22.7989 1.79088 21.9348C1.37135 21.6467 0.9706 21.3023 0.644991 20.9141C-0.212863 19.8809 -0.206601 18.5535 0.613683 17.4827C1.22733 16.6875 2.04761 16.1552 2.96809 15.7983C3.72575 15.504 4.52099 15.2911 5.30371 15.0469C5.36632 15.0281 5.4352 15.0156 5.49782 14.9968C5.03445 14.3205 4.55856 13.6693 4.12024 12.9993C3.50659 12.0538 2.98687 11.0582 2.66126 9.97491C2.23547 8.56602 2.35444 7.1634 2.82407 5.80461C3.90108 2.62366 6.14904 0.738882 9.44896 0.106449C9.69317 0.0626171 9.94363 0.0375703 10.1878 0C10.5949 0 11.0019 0 11.4089 0ZM10.7764 17.1821C11.9286 16.0801 12.9743 14.9655 13.9386 13.7758C14.7902 12.7301 15.5917 11.6405 16.2053 10.4258C16.675 9.50528 16.9067 8.5535 16.7376 7.50779C16.2742 4.6775 14.1578 2.68627 11.2962 2.42328C8.84783 2.19786 6.51222 3.49404 5.42894 5.6919C4.93426 6.69377 4.69632 7.752 4.8466 8.86658C4.93426 9.52407 5.2223 10.1189 5.53539 10.695C6.3682 12.2354 7.45773 13.5942 8.62241 14.8904C9.31746 15.6668 10.0438 16.4057 10.7764 17.1821ZM10.7827 20.4069C10.3632 20.0187 9.95616 19.6555 9.56167 19.2736C8.8541 18.5785 8.15905 17.8709 7.45147 17.1759C7.38259 17.107 7.24484 17.0506 7.15091 17.0694C6.06763 17.2635 4.99062 17.5077 3.98875 17.9649C3.51912 18.1777 3.06827 18.4595 2.655 18.7726C2.29182 19.0481 2.30435 19.3049 2.64248 19.6117C2.84911 19.7995 3.0808 19.9686 3.325 20.1001C4.6337 20.8202 6.06763 21.1521 7.53288 21.365C9.32372 21.628 11.1271 21.6593 12.9305 21.4965C14.4583 21.3587 15.9611 21.0894 17.3951 20.5134C17.9398 20.2942 18.4721 20.05 18.9104 19.6493C19.2798 19.3049 19.2986 19.0669 18.9167 18.735C18.6286 18.4783 18.2968 18.2529 17.9586 18.0776C16.8503 17.5015 15.6481 17.2385 14.427 17.0632C14.3394 17.0506 14.2079 17.1258 14.1452 17.2009C13.1371 18.3719 11.985 19.3925 10.7827 20.4069Z" fill="#81D100"/>
<path d="M10.9267 4.80274C13.0119 4.91545 14.5022 6.53097 14.3957 8.56603C14.2893 10.6324 12.655 12.1039 10.5761 11.9974C8.5911 11.8973 7.08203 10.2129 7.201 8.21537C7.31998 6.19284 8.95428 4.69629 10.9267 4.80274ZM10.8015 7.20723C10.0877 7.20723 9.6055 7.68313 9.59924 8.3907C9.59924 9.05444 10.1377 9.59921 10.8015 9.60547C11.5091 9.61173 12.01 9.10453 12.0037 8.3907C11.9912 7.6706 11.5153 7.20723 10.8015 7.20723Z" fill="#81D100"/>
</svg>
