<svg width="64" height="60" viewBox="0 0 64 60" fill="none" xmlns="http://www.w3.org/2000/svg">
<path d="M63.9577 39.1208C63.5905 39.7884 63.0231 40.0053 62.2554 40.0053C57.5155 39.972 52.7589 39.9887 48.019 39.9887C47.8354 39.9887 47.6351 40.0053 47.4516 39.972C46.8173 39.8885 46.35 39.3711 46.35 38.7369C46.35 38.1194 46.8173 37.5853 47.4516 37.5019C47.6518 37.4685 47.8688 37.4852 48.0691 37.4852C52.2749 37.4852 56.4807 37.4852 60.6865 37.4852C60.9202 37.4852 61.1372 37.4852 61.4209 37.4852C61.4209 25.8357 61.4209 14.203 61.4209 2.53684C48.4696 2.53684 35.5017 2.53684 22.5171 2.53684C22.5171 5.84141 22.5171 9.1293 22.5171 12.5006C22.734 12.5006 22.951 12.5006 23.1847 12.5006C27.6408 12.5006 32.097 12.5006 36.5531 12.5006C37.8716 12.5006 38.3556 13.0347 38.2054 14.3532C37.8383 17.591 35.2347 19.9609 31.9468 19.9776C28.976 19.9943 25.9885 19.9776 23.0178 19.9776C22.8675 19.9776 22.734 19.9776 22.5338 19.9776C22.5338 25.8024 22.5338 31.5937 22.5338 37.4685C22.7507 37.4685 22.9844 37.4685 23.2013 37.4685C27.4238 37.4685 31.6464 37.4685 35.8856 37.4685C36.1192 37.4685 36.3529 37.4518 36.5698 37.4852C37.1707 37.5853 37.6046 38.1194 37.6046 38.7202C37.6046 39.2877 37.1874 39.8051 36.6199 39.9386C36.5365 39.9553 36.453 39.972 36.3696 39.972C31.3293 39.972 26.2889 39.9887 21.2486 39.972C20.4308 39.972 19.9969 39.4212 19.9969 38.5033C19.9969 34.8315 19.9969 31.1765 19.9969 27.5047C19.9969 25.0346 19.9969 22.5479 19.9969 20.0277C19.1791 20.0277 18.378 20.0277 17.4934 20.0277C17.4934 20.2614 17.4934 20.5117 17.4934 20.7454C17.4934 33.2126 17.4934 45.6965 17.4934 58.1638C17.4934 59.6158 17.143 59.9663 15.691 59.9663C12.6868 59.9663 9.69933 59.9663 6.69517 59.9663C5.41006 59.9663 5.00951 59.5657 5.00951 58.2973C5.00951 51.588 5.00951 44.8954 5.00951 38.1862C5.00951 37.9358 5.00951 37.6855 5.00951 37.4017C4.8593 37.3517 4.70909 37.2849 4.55889 37.2348C1.88852 36.4671 0.0359614 34.0805 0.0192717 31.3267C0.00258191 27.1209 -0.0141078 22.915 0.0192717 18.7092C0.0359614 15.2544 2.77308 12.5507 6.22786 12.5006C7.57973 12.4839 8.9316 12.5006 10.3002 12.4506C8.9316 12.0834 7.83008 11.3824 7.06235 10.1974C6.31131 9.01247 6.09434 7.74405 6.39476 6.37549C6.91214 4.03892 9.11519 2.40332 11.5519 2.52015C13.9385 2.63698 15.9246 4.48954 16.225 6.94294C16.4754 8.92902 15.4072 11.6328 12.1027 12.4672C14.8231 12.4672 17.3766 12.4672 20.0136 12.4672C20.0136 12.2503 20.0136 12.0333 20.0136 11.8163C20.0136 8.42833 20.0136 5.02362 20.0136 1.6356C20.0136 0.433934 20.4308 0.0166898 21.6325 0.0166898C35.2013 0.0166898 48.7867 0.0166898 62.3555 0C63.1065 0 63.6406 0.233657 63.9911 0.884557C63.9577 13.6355 63.9577 26.3698 63.9577 39.1208ZM9.99975 57.4461C9.99975 57.1457 9.99975 56.9121 9.99975 56.6617C9.99975 50.0192 9.99975 43.3767 9.99975 36.7341C9.99975 36.5339 9.98306 36.3169 10.0164 36.1166C10.0999 35.4824 10.6173 35.0151 11.2348 34.9984C11.8523 34.9984 12.4031 35.449 12.4865 36.0832C12.5199 36.3169 12.5032 36.5339 12.5032 36.7675C12.5032 43.4101 12.5032 50.0526 12.5032 56.6951C12.5032 56.9454 12.5032 57.1791 12.5032 57.4294C13.3711 57.4294 14.1722 57.4294 15.0067 57.4294C15.0067 57.1457 15.0067 56.8954 15.0067 56.645C15.0067 44.2112 15.0067 31.7773 15.0067 19.3601C15.0067 19.1265 14.99 18.8928 15.0234 18.6758C15.0734 18.0249 15.5407 17.5743 16.1916 17.5076C16.3919 17.4909 16.6089 17.5076 16.8092 17.5076C21.8495 17.5076 26.8898 17.5076 31.9301 17.5076C33.6157 17.5076 35.0678 16.4728 35.4516 15.0375C35.3682 15.0208 35.2847 15.0208 35.218 15.0208C25.5379 15.0208 15.8578 15.0041 6.17779 15.0375C4.19171 15.0375 2.58949 16.6731 2.53942 18.6758C2.52273 19.5103 2.53942 20.3448 2.53942 21.1793C2.53942 24.5339 2.53942 27.8886 2.53942 31.2432C2.53942 32.9122 3.64095 34.4477 5.04289 34.7314C5.04289 34.4977 5.04289 34.2641 5.04289 34.0471C5.04289 29.9581 5.04289 25.8858 5.04289 21.7968C5.04289 20.6452 5.46013 20.0611 6.27793 20.0444C7.11242 20.0277 7.54635 20.6285 7.54635 21.8135C7.54635 33.4463 7.54635 45.0957 7.54635 56.7285C7.54635 56.9788 7.54635 57.2125 7.54635 57.4962C8.33077 57.4461 9.11519 57.4461 9.99975 57.4461ZM13.7382 7.52708C13.7549 6.15852 12.6367 5.02362 11.2682 5.00693C9.89961 4.99024 8.7647 6.10845 8.74801 7.47701C8.73132 8.84557 9.84954 9.98047 11.2181 9.99716C12.5867 10.0139 13.7216 8.89564 13.7382 7.52708Z" fill="#036DB9"/>
<path d="M63.9577 59.0984C63.5905 59.766 63.0231 59.983 62.2553 59.983C56.7143 59.9663 51.19 59.9663 45.649 59.9663C44.3306 59.9663 43.8465 59.4322 43.9968 58.1137C44.3472 54.9093 46.9675 52.5227 50.1887 52.4726C51.1233 52.4559 52.0579 52.4726 53.0927 52.4726C49.8882 51.2543 48.5197 49.1347 49.0871 46.3975C49.5878 44.0443 51.7909 42.3586 54.2443 42.4754C56.6476 42.5923 58.6671 44.5116 58.9341 46.9483C59.2178 49.4351 57.6323 51.6047 54.9452 52.4559C55.6629 52.4559 56.3972 52.4559 57.1149 52.4559C60.8033 52.4559 62.973 54.1583 63.8743 57.7299C63.8909 57.7633 63.9243 57.7966 63.9577 57.83C63.9577 58.264 63.9577 58.6812 63.9577 59.0984ZM61.2039 57.4628C60.6865 56.0108 59.3847 55.0095 57.916 54.9928C55.2957 54.9594 52.6754 54.9427 50.0551 54.9928C48.6365 55.0261 47.5851 55.7605 46.9008 57.0122C46.834 57.1457 46.8006 57.2959 46.7506 57.4628C51.5906 57.4628 56.3639 57.4628 61.2039 57.4628ZM56.464 47.4657C56.464 46.0971 55.3291 44.9789 53.9438 44.9789C52.5753 44.9789 51.4571 46.1138 51.4571 47.4824C51.4571 48.8509 52.592 49.9691 53.9605 49.9691C55.3458 49.9691 56.464 48.8342 56.464 47.4657Z" fill="#81D100"/>
<path d="M51.3736 12.5006C51.19 12.2503 51.0565 12.1001 50.9397 11.9332C50.6059 11.4158 50.656 10.815 51.0732 10.381C51.5071 9.93042 52.1914 9.7969 52.6587 10.2308C53.6434 11.1321 54.5781 12.0667 55.4793 13.0514C55.8965 13.5187 55.8131 14.1362 55.3291 14.6369C54.5614 15.4547 53.7603 16.2391 52.9592 17.0236C52.3583 17.6077 51.6573 17.6411 51.1233 17.1404C50.5892 16.6397 50.6059 15.9721 51.14 15.3045C51.2067 15.2378 51.2568 15.1543 51.3736 15.0041C49.7881 15.0041 48.286 14.9707 46.8006 15.0208C46.1998 15.0375 45.7492 15.5549 45.7158 16.2058C45.6824 17.0403 45.4488 17.7913 44.9814 18.4923C44.898 18.6091 44.898 18.8928 44.9814 19.0096C45.4488 19.6939 45.6824 20.4617 45.7158 21.2961C45.7492 21.947 46.1831 22.4644 46.8006 22.4811C48.286 22.5145 49.7714 22.4978 51.3569 22.4978C51.1733 22.2641 51.0398 22.1139 50.9397 21.947C50.5892 21.413 50.656 20.7788 51.1066 20.3615C51.5405 19.9443 52.1914 19.8441 52.642 20.2447C53.6267 21.1459 54.5614 22.0806 55.4626 23.0653C55.8965 23.5493 55.7797 24.1668 55.279 24.7008C54.5113 25.502 53.7269 26.2697 52.9425 27.0374C52.3416 27.6216 51.6407 27.6549 51.1066 27.1542C50.5725 26.6536 50.5892 25.986 51.1233 25.3184C51.19 25.2516 51.2401 25.1682 51.3736 25.0013C49.9383 25.0013 48.6198 25.0013 47.3013 25.0013C44.8813 25.0013 43.4293 23.6661 43.2123 21.2294C43.1456 20.5117 42.6282 19.9943 41.9606 19.9943C41.2596 19.9943 40.7256 20.5284 40.7089 21.2795C40.6922 22.865 40.7089 24.4505 40.7089 26.0193C40.7089 28.2224 39.1901 29.8914 37.1206 29.9748C35.001 30.0583 33.3654 28.5061 33.2152 26.2864C33.1484 25.4519 32.6811 25.0013 31.8466 24.9846C31.0956 24.9679 30.3445 24.9846 29.5935 24.9846C28.7757 24.9679 28.2249 24.4839 28.2082 23.7662C28.1916 23.0319 28.759 22.4978 29.5935 22.4978C30.3779 22.4811 31.179 22.4811 31.9634 22.4978C33.9829 22.5312 35.5517 24.0333 35.6853 26.0527C35.752 26.9707 36.236 27.5214 36.9871 27.488C37.7381 27.4547 38.1887 26.8872 38.1887 25.9693C38.1887 24.4338 38.1887 22.8817 38.1887 21.3462C38.2054 19.2099 39.6908 17.6411 41.8104 17.4909C42.7116 17.4408 43.1289 17.0069 43.179 16.1223C43.3125 13.986 44.8813 12.5006 47.0176 12.4839C48.4696 12.5006 49.8715 12.5006 51.3736 12.5006Z" fill="#81D100"/>
<path d="M31.5963 52.4892C32.581 52.4892 33.4488 52.4892 34.3167 52.4892C37.6547 52.5059 40.1915 54.709 40.6922 57.9969C40.9092 59.4155 40.275 60.0163 38.9898 59.9996C33.4488 59.9663 27.9245 59.9829 22.3835 59.9829C21.1318 59.9829 20.6478 59.4656 20.7646 58.1971C21.0317 55.0595 23.6686 52.5727 26.823 52.4892C27.8077 52.4726 28.7757 52.4892 29.7771 52.4392C28.4252 52.072 27.307 51.371 26.556 50.1861C25.8049 49.0178 25.5713 47.7327 25.8717 46.3641C26.3724 44.0776 28.492 42.442 30.8786 42.4921C33.2819 42.5422 35.2513 44.3113 35.6686 46.7813C36.1025 49.2681 34.6338 51.3377 31.5963 52.4892ZM37.9217 57.4461C37.5712 56.1109 36.2027 55.0094 34.7173 54.9927C32.0469 54.9426 29.3932 54.9426 26.7229 54.9927C25.2375 55.0094 23.8689 56.1276 23.5184 57.4461C28.3251 57.4461 33.1317 57.4461 37.9217 57.4461ZM30.7785 44.9955C29.4099 44.9622 28.2583 46.0637 28.2249 47.4323C28.1916 48.8008 29.2931 49.9524 30.6617 49.9858C32.0302 50.0192 33.1818 48.9009 33.2152 47.5491C33.2486 46.1638 32.147 45.0122 30.7785 44.9955Z" fill="#81D100"/>
<path d="M41.9773 37.502C42.6449 37.502 43.2124 38.0527 43.2291 38.7203C43.2458 39.4046 42.6783 40.0054 41.994 40.0054C41.3097 40.0054 40.7256 39.4213 40.7423 38.737C40.7423 38.036 41.3097 37.502 41.9773 37.502Z" fill="#036DB9"/>
</svg>
