<svg width="25" height="24" viewBox="0 0 25 24" fill="none" xmlns="http://www.w3.org/2000/svg">
<path d="M24.0195 20.065C23.8066 20.7101 23.3745 21.1923 22.8923 21.6494C22.3725 22.1442 21.8965 22.689 21.2765 23.0647C19.9614 23.8601 18.521 24.0855 17.018 23.9728C14.6884 23.7975 12.5779 22.9395 10.5927 21.7621C6.99806 19.6329 4.15489 16.7459 2.05695 13.1324C1.11132 11.4917 0.416181 9.7507 0.128106 7.86569C-0.109868 6.31885 -0.0535059 4.79707 0.61658 3.34417C0.873343 2.78055 1.22404 2.27328 1.66242 1.82865C1.96302 1.52179 2.26988 1.22119 2.57048 0.914324C3.61631 -0.118987 5.42617 -0.144037 6.50958 0.851699C7.89986 2.12925 9.29639 3.4068 10.6867 4.68434C11.8828 5.78028 11.9392 7.45236 10.8182 8.62345C10.4111 9.0493 10.0103 9.47515 9.57194 9.86342C9.22124 10.1765 9.1774 10.5272 9.27134 10.9406C9.45295 11.7296 9.8788 12.3872 10.3548 13.0197C11.0499 13.934 11.9642 14.529 13.0727 14.8233C13.4359 14.9235 13.7428 14.8734 14.0183 14.5603C14.369 14.1595 14.7698 13.8088 15.1393 13.4268C16.1413 12.3935 18.0827 12.2807 19.1786 13.3892C20.4749 14.6981 21.8151 15.9693 23.1428 17.2469C23.531 17.6226 23.8128 18.061 24.0132 18.562C24.0195 19.063 24.0195 19.564 24.0195 20.065ZM13.5611 17.1905C13.0664 17.0903 12.5591 17.034 12.0769 16.8837C10.1418 16.2699 8.7265 14.9987 7.68067 13.289C7.09826 12.3434 6.7413 11.3163 6.81018 10.1828C6.86028 9.44383 7.12957 8.80506 7.68693 8.30406C8.09399 7.93457 8.49479 7.56509 8.89559 7.1956C9.1774 6.93884 9.1774 6.88248 8.90812 6.61945C7.60552 5.31059 6.30292 4.00799 5.00032 2.7054C4.9377 2.64277 4.88134 2.58641 4.82497 2.51752C4.70599 2.37348 4.52437 2.34843 4.3866 2.47368C4.24882 2.59893 4.11731 2.73671 3.9858 2.86822C3.67268 3.20639 3.32824 3.51952 3.05895 3.88901C2.55169 4.60293 2.40765 5.43584 2.40765 6.28754C2.40765 7.54004 2.69573 8.73617 3.17168 9.88221C5.28214 14.9674 8.88933 18.5996 13.9306 20.7977C15.1643 21.3363 16.4607 21.6369 17.8196 21.5868C18.64 21.5555 19.4541 21.4302 20.1054 20.8854C20.6002 20.4721 21.0448 19.9961 21.502 19.5327C21.6648 19.3699 21.646 19.2258 21.4707 19.0505C20.143 17.7228 18.8216 16.4015 17.494 15.0738C17.2623 14.8421 17.1997 14.8421 16.9617 15.0801C16.5922 15.4496 16.2102 15.8065 15.8532 16.1948C15.2395 16.8774 14.4567 17.1342 13.5611 17.1905Z" fill="white"/>
<path d="M24.0195 9.61292C23.2304 9.61292 22.4476 9.61292 21.6272 9.61292C21.5834 7.63397 20.9008 5.92431 19.5105 4.52778C18.1202 3.13124 16.4168 2.43611 14.4128 2.39227C14.4128 1.58441 14.4128 0.795336 14.4128 0C14.632 0 14.8512 0 15.0704 0C15.5526 0.0751499 16.0411 0.137775 16.517 0.237975C20.1618 1.00826 23.1678 4.10819 23.8442 7.78427C23.913 8.17255 23.9631 8.56709 24.0258 8.95536C24.0195 9.17455 24.0195 9.39373 24.0195 9.61292Z" fill="white"/>
<path d="M14.4254 7.17681C14.4254 6.38773 14.4254 5.61119 14.4254 4.83464C16.7989 4.66555 19.2913 6.91378 19.1911 9.58787C18.4083 9.58787 17.6255 9.58787 16.8364 9.58787C16.6799 8.14749 15.8845 7.3459 14.4254 7.17681Z" fill="white"/>
</svg>
