<svg width="18" height="18" viewBox="0 0 18 18" fill="none" xmlns="http://www.w3.org/2000/svg">
<path d="M18 8.98121C18.0125 13.929 13.9666 17.9874 9.01879 18C4.071 18.0125 0.0125551 13.9666 2.90071e-05 9.01879C-0.0124971 4.071 4.03342 0.0125551 8.98121 2.90071e-05C13.929 -0.012497 17.9874 4.03342 18 8.98121ZM8.98121 16.0083C12.8267 16.0209 15.9833 12.8768 15.9958 9.01879C16.0083 5.17329 12.8643 2.01672 9.00626 2.0042C5.16076 1.99167 2.0042 5.13571 1.99167 8.99374C1.99167 12.8267 5.13571 15.9958 8.98121 16.0083Z" fill="#81D100"/>
<path d="M7.96659 10.6221C9.14404 9.43213 10.2463 8.32983 11.3612 7.22754C11.6493 6.92692 11.9374 6.62629 12.2505 6.35072C12.7515 5.89978 13.3152 5.89978 13.7161 6.32567C14.1044 6.73903 14.1044 7.29017 13.6534 7.75364C12.9019 8.53025 12.1252 9.29434 11.3612 10.0584C10.5344 10.8851 9.72024 11.7119 8.88099 12.5261C8.25469 13.1524 7.74112 13.1524 7.11482 12.5386C6.53862 11.9749 5.97495 11.4112 5.4238 10.8476C4.89771 10.309 4.86013 9.74528 5.31107 9.30687C5.74948 8.86845 6.31315 8.91856 6.85177 9.44465C7.21503 9.80791 7.56576 10.1962 7.96659 10.6221Z" fill="#81D100"/>
</svg>
