<svg width="24" height="24" viewBox="0 0 24 24" fill="none" xmlns="http://www.w3.org/2000/svg">
<path d="M13.6973 0C15.2317 1.53445 16.7662 3.07516 18.3006 4.6096C18.9582 5.26722 19.6159 5.92484 20.2672 6.58246C20.3361 6.65136 20.3987 6.76409 20.3987 6.85804C20.405 8.12317 20.405 9.38831 20.405 10.6534C20.405 10.691 20.3987 10.7286 20.3925 10.7787C19.6033 10.7787 18.8267 10.7787 18.0188 10.7787C18.0188 9.99582 18.0188 9.21294 18.0188 8.40501C16.0084 8.40501 14.0167 8.40501 12.0063 8.40501C12.0063 6.38831 12.0063 4.40292 12.0063 2.40501C8.79332 2.40501 5.61169 2.40501 2.41127 2.40501C2.41127 8.80584 2.41127 15.1879 2.41127 21.595C6.40084 21.595 10.3841 21.595 14.38 21.595C14.38 22.4029 14.38 23.1858 14.38 24C9.58873 24 4.79123 24 0 24C0.00626305 16.0084 0.00626305 8.01044 0.00626305 0C4.57203 0 9.13153 0 13.6973 0ZM16.2025 5.99374C15.62 5.41127 15.0063 4.79749 14.4238 4.21503C14.4238 4.76618 14.4238 5.37996 14.4238 5.99374C15.0501 5.99374 15.6576 5.99374 16.2025 5.99374Z" fill="white"/>
<path d="M18 13.215C18.8142 13.215 19.5908 13.215 20.3925 13.215C20.3925 15.2693 20.3925 17.3173 20.3925 19.4029C21.0438 18.7453 21.6639 18.119 22.2714 17.5052C22.8727 18.1065 23.4238 18.6576 23.9624 19.1962C22.3779 20.7808 20.7808 22.3779 19.1962 23.9624C17.618 22.3841 16.0271 20.7933 14.4551 19.2213C15 18.6827 15.5449 18.1315 16.0898 17.5866C16.6848 18.1816 17.3048 18.8017 17.9248 19.4217C17.9499 19.4092 17.9749 19.3967 17.9937 19.3841C18 17.3361 18 15.2818 18 13.215Z" fill="white"/>
</svg>
