<svg width="39" height="44" viewBox="0 0 39 44" fill="none" xmlns="http://www.w3.org/2000/svg">
<path fill-rule="evenodd" clip-rule="evenodd" d="M22.8395 12.5632L33.9097 7.20211V31.0026H38.1333V0L18.2 10.01L22.8395 12.5632Z" fill="#939AA3"/>
<path fill-rule="evenodd" clip-rule="evenodd" d="M0 44H4.22356V7.20211L23.5156 17.4611L11.0991 24.2116V18.3989L13.3467 19.6205L17.3969 17.4032L7.03156 12.2737V31.0084L31.8356 17.5189L23.3076 12.8295L18.1942 10.0158L0 0V44Z" fill="#939AA3"/>
<path d="M6.70619 33.0719V37.8446H7.24283V36.0749H8.6012C9.05959 36.0749 9.4453 35.9311 9.75275 35.6435C10.0602 35.356 10.2111 35.002 10.2111 34.5706C10.2111 34.1393 10.0602 33.7853 9.75275 33.4977C9.4453 33.2102 9.06518 33.0664 8.6012 33.0664H6.70619V33.0719ZM8.6012 33.553C8.92543 33.553 9.18257 33.6471 9.37822 33.8351C9.57387 34.0231 9.6689 34.2665 9.6689 34.5762C9.6689 34.8859 9.57387 35.1292 9.37822 35.3172C9.18257 35.5053 8.92543 35.5993 8.6012 35.5993H7.24283V33.553H8.6012ZM11.8881 37.369V35.5938H14.208V35.1181H11.8881V33.553H14.7782V33.0719H11.3515V37.8446H14.8509V37.369H11.8881ZM15.9185 33.0719V37.8446H16.4552V35.9367H17.8806L18.9931 37.8446H19.6024L18.4229 35.8703L18.5291 35.8371C18.6018 35.815 18.6856 35.7707 18.7862 35.7044C18.8869 35.638 18.9875 35.5551 19.0881 35.461C19.1887 35.367 19.2726 35.2343 19.3452 35.0684C19.4179 34.8969 19.4514 34.7144 19.4514 34.5098C19.4514 34.1006 19.3061 33.7577 19.0154 33.4867C18.7247 33.2157 18.3558 33.0774 17.9142 33.0774H15.9185V33.0719ZM17.9198 33.553C18.2216 33.553 18.4676 33.636 18.6465 33.813C18.8254 33.9844 18.9204 34.2167 18.9204 34.5098C18.9204 34.8029 18.831 35.0352 18.6465 35.2066C18.4676 35.3781 18.2216 35.4666 17.9198 35.4666H16.4552V33.5586H17.9198V33.553ZM20.7427 33.0719V37.8446H21.2794V35.6657H23.5657V35.1845H21.2794V33.553H24.1359V33.0719H20.7427ZM25.6676 37.369V35.5938H27.9874V35.1181H25.6676V33.553H28.5576V33.0719H25.1309V37.8446H28.6303V37.369H25.6676ZM29.3793 35.4555C29.3793 36.1357 29.6309 36.7164 30.1284 37.1921C30.6259 37.6677 31.2352 37.9055 31.9507 37.9055C32.2023 37.9055 32.4483 37.8723 32.6886 37.8004C32.929 37.7285 33.1191 37.6511 33.2644 37.5626C33.4097 37.4741 33.5495 37.3746 33.6836 37.2584C33.8122 37.1478 33.9017 37.0649 33.9408 37.0261C33.9799 36.9819 34.0079 36.9487 34.0246 36.9211L33.6669 36.6114L33.5998 36.6943C33.5607 36.7552 33.488 36.8215 33.393 36.9045C33.2979 36.9819 33.1805 37.0649 33.052 37.1423C32.9234 37.2197 32.7613 37.2916 32.5656 37.3469C32.37 37.4022 32.1632 37.4299 31.9507 37.4299C31.3806 37.4299 30.8942 37.2418 30.5029 36.8602C30.1116 36.4786 29.916 36.0141 29.916 35.45C29.916 34.8914 30.1116 34.4213 30.5029 34.0397C30.8942 33.6581 31.3806 33.4701 31.9507 33.4701C32.1632 33.4701 32.37 33.5033 32.5656 33.5586C32.7613 33.6194 32.9178 33.6858 33.0408 33.7577C33.1638 33.8296 33.27 33.9125 33.3762 34.0065C33.4768 34.1006 33.5439 34.1669 33.5718 34.2001C33.5998 34.2388 33.6222 34.2665 33.6333 34.2886L33.9911 33.9844L33.9128 33.8849C33.8625 33.813 33.7787 33.73 33.6613 33.636C33.5439 33.5364 33.4097 33.4424 33.2588 33.3484C33.1079 33.2544 32.9122 33.1714 32.683 33.1051C32.4483 33.0387 32.2079 33 31.9563 33C31.2408 33 30.6371 33.2378 30.134 33.7134C29.6309 34.2001 29.3793 34.7753 29.3793 35.4555ZM34.4551 33.0719V33.553H36.0259V37.8446H36.5625V33.553H38.1333V33.0719H34.4551ZM9.2776 41.3067L7.56705 39.2273H6.59998V44H7.67326V40.8311L9.2776 42.7722L10.8875 40.82V44H11.9552V39.2273H11.0049L9.2776 41.3067ZM14.3142 43.0819V42.0256H16.349V41.1076H14.3142V40.1508H16.9192V39.2273H13.2409V44H16.9918V43.0819H14.3142ZM17.9869 39.2273V44H19.8483C20.575 44 21.1844 43.7677 21.6819 43.3087C22.1738 42.8441 22.4197 42.28 22.4197 41.6164C22.4197 40.9472 22.1738 40.3831 21.6819 39.9241C21.1899 39.4651 20.5806 39.2328 19.8483 39.2328H17.9869V39.2273ZM19.8483 40.1508C20.2732 40.1508 20.6309 40.2946 20.916 40.5767C21.2011 40.8587 21.3465 41.2071 21.3465 41.6164C21.3465 42.0256 21.2011 42.3741 20.9049 42.6561C20.6142 42.9382 20.2564 43.0819 19.8427 43.0819H19.0546V40.1508H19.8483ZM23.4148 44H24.4881V39.2273H23.4148V44ZM28.3452 41.9869H27.1265L27.7359 40.4218L28.3452 41.9869ZM28.7029 42.8773L29.1278 44H30.2737L28.306 39.2273H27.1657L25.198 44H26.3439L26.7744 42.8773H28.7029Z" fill="#939AA3"/>
</svg>
