<svg width="25" height="24" viewBox="0 0 25 24" fill="none" xmlns="http://www.w3.org/2000/svg">
<path d="M0 8.43841C0.09446 8.06687 0.176325 7.68903 0.295975 7.33008C0.503787 6.70035 0.85014 6.15248 1.32244 5.68648C1.6499 5.35902 1.98366 5.03785 2.30482 4.70409C3.19275 3.77839 4.92451 3.65874 5.9069 4.6852C6.99634 5.82502 8.13615 6.92075 9.25078 8.04168C10.1387 8.9359 10.2835 10.1765 9.57195 11.1211C9.26968 11.5178 8.91073 11.8831 8.53289 12.2105C8.21172 12.5002 8.17394 12.8151 8.28099 13.1866C8.57697 14.2068 9.23819 14.9499 10.1513 15.4473C10.5165 15.6489 10.9322 15.7559 11.3352 15.8756C11.5178 15.9322 11.6816 15.8441 11.8201 15.6992C12.1035 15.4033 12.4057 15.1325 12.6828 14.8302C13.5267 13.8982 15.0254 13.873 15.926 14.7294C17.1602 15.9071 18.363 17.1161 19.5406 18.3441C20.3719 19.2131 20.3719 20.523 19.5721 21.4298C19.1187 21.9399 18.6401 22.4311 18.1237 22.8782C17.1224 23.7346 15.9071 24.018 14.6161 23.9991C13.174 23.9802 11.8201 23.5772 10.5417 22.9664C6.30993 20.9449 3.11718 17.8466 1.03276 13.6274C0.535273 12.6198 0.207812 11.543 0.0503787 10.4221C0.0440813 10.3843 0.0251893 10.3528 0.0125947 10.315C0 9.69158 0 9.06814 0 8.43841ZM14.2131 16.5431C13.9045 16.8579 13.5959 17.1728 13.2811 17.4877C12.9536 17.8214 12.5569 18.0355 12.1035 18.1489C11.5619 18.2874 11.014 18.2874 10.4662 18.1741C8.01021 17.6766 6.01395 15.4851 5.76836 12.9914C5.6739 12.0531 5.93839 11.2218 6.68147 10.5795C6.98374 10.3213 7.27972 10.0505 7.5631 9.79864C6.44217 8.67141 5.32125 7.55679 4.19402 6.42327C3.84767 6.76962 3.48872 7.13486 3.12977 7.49381C2.86529 7.752 2.67637 8.06057 2.6008 8.42582C2.53153 8.78477 2.47485 9.15631 2.48745 9.52155C2.51893 10.7873 2.93456 11.9586 3.50761 13.067C5.11343 16.1778 7.45604 18.596 10.4914 20.3341C11.7382 21.052 13.0544 21.5998 14.5091 21.7069C15.2521 21.7636 15.9952 21.7132 16.5683 21.1779C16.965 20.8064 17.2736 20.3467 17.6073 19.9373C16.4675 18.7975 15.3529 17.6829 14.2131 16.5431Z" fill="#939AA3"/>
<path d="M11.6438 0C12.1098 0.0629733 12.5821 0.09446 13.0418 0.182623C17.9978 1.12093 21.4172 3.93583 23.2938 8.60845C23.8417 9.96868 24.081 11.3982 24.1314 12.8592C24.1377 12.9599 24.1314 13.0607 24.1314 13.1677C24.1314 13.1929 24.1251 13.2118 24.1188 13.2559C23.3316 13.2559 22.5445 13.2559 21.7321 13.2559C21.6754 10.2898 20.6615 7.70164 18.5582 5.59203C16.4486 3.48243 13.8667 2.46226 10.844 2.40558C10.844 1.59952 10.844 0.799761 10.844 0C11.1085 0 11.373 0 11.6438 0Z" fill="#939AA3"/>
<path d="M10.8566 4.84895C15.4537 4.76708 19.3517 8.58956 19.2887 13.2496C19.2509 13.2559 19.2069 13.2748 19.1628 13.2748C18.4827 13.2748 17.7963 13.2685 17.1162 13.2811C16.9146 13.2874 16.8957 13.1992 16.8832 13.0292C16.7446 10.6677 15.6363 8.92962 13.533 7.84648C12.7773 7.45604 11.9586 7.26712 11.1085 7.25453C10.9196 7.24823 10.8503 7.20415 10.8566 7.00263C10.8629 6.29104 10.8566 5.57944 10.8566 4.84895Z" fill="#939AA3"/>
</svg>
