<svg width="32" height="32" viewBox="0 0 32 32"  xmlns="http://www.w3.org/2000/svg">
<path d="M15.9957 32C7.15576 31.9915 -0.00854165 24.81 7.64356e-06 15.9701C0.00855693 7.14721 7.18996 -0.00854164 16.0214 7.65268e-06C24.8442 0.00855694 32.0085 7.18141 32 16.0128C31.9915 24.8357 24.8186 32 15.9957 32ZM6.14695 15.9957C6.1384 15.9957 6.12985 15.9957 6.1213 15.9957C6.1213 17.2012 6.11275 18.4066 6.1213 19.6121C6.12985 20.0652 6.14695 20.5269 6.21534 20.98C6.51457 22.9463 7.47209 24.4424 9.35293 25.2461C10.225 25.6222 11.1483 25.7761 12.0973 25.7761C14.5936 25.7847 17.09 25.7847 19.5779 25.7761C20.1165 25.7761 20.6636 25.7419 21.2022 25.6564C23.2028 25.323 24.6904 24.2971 25.4427 22.3479C25.7505 21.5357 25.8873 20.6807 25.8873 19.8087C25.8873 17.3465 25.8958 14.8843 25.8873 12.4221C25.8873 11.9519 25.8616 11.4817 25.7932 11.02C25.4769 8.97676 24.4595 7.45499 22.4761 6.677C21.6725 6.36923 20.8261 6.22389 19.9711 6.22389C17.3294 6.21534 14.6791 6.20679 12.0374 6.22389C11.0542 6.23244 10.0882 6.40343 9.18195 6.83089C7.18141 7.77131 6.29229 9.45552 6.16405 11.5586C6.07 13.0291 6.14695 14.5167 6.14695 15.9957Z" />
<path d="M16.0043 8.07054C17.3038 8.07054 18.6033 8.06199 19.9113 8.07909C20.3473 8.08764 20.7833 8.13038 21.2108 8.23298C22.7924 8.59205 23.8098 9.75475 23.9979 11.3706C24.0406 11.7296 24.0577 12.0887 24.0577 12.4563C24.0663 14.8843 24.0748 17.3209 24.0492 19.7489C24.0406 20.3473 23.9466 20.9714 23.7585 21.5357C23.2626 22.9976 22.1598 23.7756 20.6636 23.8611C18.7999 23.9637 16.9362 23.9551 15.0724 23.9637C13.8328 23.9637 12.5931 23.9637 11.362 23.8696C9.48118 23.7328 8.21588 22.459 8.00215 20.5781C7.96795 20.2533 7.94231 19.9199 7.94231 19.5864C7.93376 17.1242 7.92521 14.662 7.95085 12.1913C7.9594 11.6185 8.05345 11.02 8.24153 10.4729C8.73739 9.01096 9.84025 8.25862 11.3364 8.14748C12.6273 8.05344 13.9354 8.07054 15.2348 8.04489C15.4913 8.03634 15.7478 8.04489 16.0043 8.04489C16.0043 8.04489 16.0043 8.05344 16.0043 8.07054ZM21.2023 16.0214C21.2023 13.1232 18.8939 10.8063 16.0214 10.7978C13.1146 10.7978 10.8063 13.1061 10.7978 16.0128C10.7978 18.8854 13.1146 21.1937 16.0128 21.2022C18.8683 21.2022 21.2023 18.8768 21.2023 16.0214ZM21.2194 9.78895C20.6465 9.7975 20.1934 10.2592 20.1934 10.832C20.1934 11.4219 20.6636 11.875 21.2621 11.8664C21.8349 11.8579 22.288 11.3791 22.2709 10.8149C22.2538 10.2335 21.7922 9.7804 21.2194 9.78895Z" fill="white"/>
<path d="M19.3556 16.0043C19.3556 17.8595 17.8595 19.3556 15.9957 19.3556C14.1405 19.3556 12.6444 17.8509 12.6444 15.9957C12.6444 14.1405 14.1491 12.6444 16.0043 12.6444C17.8595 12.6444 19.3556 14.1405 19.3556 16.0043Z" fill="white"/>
</svg>
