<svg width="25" height="24" viewBox="0 0 25 24" fill="none" xmlns="http://www.w3.org/2000/svg">
<path d="M24.5906 12.2909C24.5906 12.2012 24.5906 12.1047 24.5906 12.015C24.5768 9.85663 22.9425 8.22921 20.7841 8.22231C19.7566 8.22231 18.7291 8.22231 17.7016 8.22231H16.2604C16.2673 8.19473 16.2811 8.16025 16.288 8.13267C16.3776 7.86373 16.4673 7.58789 16.5638 7.31896C16.75 6.76729 16.9431 6.20183 17.1155 5.63637C17.6947 3.74691 17.2534 2.12639 15.8053 0.823073C15.1295 0.209343 14.302 -0.073387 13.4883 0.016259C12.6608 0.112801 11.9022 0.588614 11.3643 1.35405C10.3851 2.74701 9.41282 4.13997 8.43362 5.53983L6.92343 7.69823C6.78551 7.89821 6.6407 8.09819 6.49588 8.30506L6.39245 8.45677C6.05455 8.22921 5.67528 8.22921 5.35807 8.22921C4.43403 8.2361 3.49619 8.2361 2.59284 8.22921C2.20667 8.22921 1.8205 8.22921 1.43434 8.22921C0.517188 8.22231 0 8.7326 0 9.66354C0 10.9669 0 12.2771 0 13.5804V14.9527V17.0145C0 18.8764 0 20.7314 0 22.5932C0 23.4345 0.517188 23.9793 1.31711 23.9862C2.61352 23.9931 4.03407 23.9931 5.65459 23.9862C6.26832 23.9862 6.76482 23.6138 6.90963 23.0415C6.92343 22.9863 6.93032 22.9311 6.93722 22.8829C7.00618 22.9311 7.07513 22.9725 7.14409 23.0208C7.47509 23.2415 7.7923 23.4483 8.10261 23.669C8.41982 23.8966 8.77841 24 9.18526 24C9.18526 24 9.18526 24 9.19216 24C12.2194 23.9931 15.4674 23.9931 18.6946 24H18.7015C19.3773 24 19.8324 23.7173 20.1359 23.1104C20.9358 21.4899 21.7633 19.8418 22.5563 18.2489C23.0321 17.2972 23.5148 16.3387 23.9906 15.3802C24.1079 15.1457 24.2182 14.8837 24.3285 14.5803C24.6044 13.8217 24.5975 13.0425 24.5906 12.2909ZM14.7157 4.78818C14.3916 5.78118 14.0537 6.79487 13.7296 7.76719C13.5986 8.16025 13.4676 8.55331 13.3366 8.93948C13.1711 9.44287 13.2124 9.9049 13.4607 10.2428C13.702 10.5807 14.1296 10.7669 14.6537 10.7669C15.1984 10.7669 15.7432 10.7669 16.2949 10.7738C17.7361 10.7807 19.2325 10.7807 20.7013 10.76C20.7082 10.76 20.722 10.76 20.7289 10.76C21.6185 10.76 22.0391 11.4358 22.0529 12.1185C22.0805 13.1115 21.8667 14.001 21.3909 14.9182C20.5358 16.5525 19.7014 18.2351 18.9015 19.8625C18.667 20.3452 18.4257 20.8279 18.1843 21.3037C18.1292 21.421 18.0947 21.4416 17.9775 21.4416H17.9706C17.2396 21.4347 16.5018 21.4347 15.7708 21.4347C15.4329 21.4347 15.095 21.4347 14.7571 21.4347C14.4192 21.4347 14.0744 21.4347 13.7365 21.4347H12.8194C11.7436 21.4347 10.6265 21.4347 9.53005 21.4278C9.43351 21.4278 9.32318 21.3934 9.24043 21.3451C8.84047 21.0831 8.44051 20.821 8.05434 20.559C7.72334 20.3383 7.38545 20.1107 7.04755 19.8901C6.9648 19.8349 6.94411 19.8004 6.94411 19.7039C6.94411 18.5523 6.94411 17.4007 6.95101 16.2491C6.95101 14.9113 6.95101 13.5804 6.95791 12.2426C6.95791 12.1598 6.99238 12.0564 7.04066 11.9874C9.22664 8.85673 11.4264 5.71912 13.4883 2.7746C13.5848 2.63668 13.6745 2.56082 13.7641 2.54703C13.8537 2.53324 13.9641 2.58151 14.1089 2.69185C14.7295 3.18835 14.9709 4.00895 14.7157 4.78818ZM4.39265 10.7876V21.421H2.57215V10.7876H4.39265Z" fill="#81D100"/>
</svg>
