<svg width="25" height="24" viewBox="0 0 25 24" fill="none" xmlns="http://www.w3.org/2000/svg">
<path d="M20.8326 24C14.9539 24 9.06883 24 3.19007 24C3.1462 23.9875 3.10233 23.9687 3.05846 23.9561C1.60444 23.7054 0.670605 22.8405 0.162951 21.4805C0.0814753 21.2674 0.0501387 21.0293 0 20.8037C0 17.2877 0 13.7654 0 10.2495C0.018802 10.1931 0.037604 10.1304 0.0501387 10.074C0.213089 9.1903 0.601664 8.41941 1.2848 7.84282C3.99229 5.54271 6.71858 3.25513 9.44487 0.961288C10.9804 -0.329783 12.9608 -0.317248 14.4963 0.98009C15.1607 1.54415 15.825 2.10194 16.4894 2.65973C18.5638 4.40832 20.6383 6.15064 22.7128 7.90549C23.5965 8.65757 24.054 9.61021 24.0415 10.7822C24.0352 11.2209 24.0415 11.6596 24.0415 12.0983C24.0415 14.8748 24.0478 17.6512 24.0415 20.4276C24.0352 22.0446 23.0387 23.3921 21.5346 23.8433C21.2901 23.906 21.0645 23.9499 20.8326 24ZM20.9016 9.58514C20.8013 9.49739 20.7323 9.43472 20.6634 9.37832C19.6732 8.52596 18.6892 7.66733 17.6989 6.81498C16.1321 5.46123 14.5715 4.09495 12.9984 2.74748C12.4971 2.31503 11.7074 2.24609 11.137 2.73494C8.85574 4.70915 6.54936 6.65829 4.25552 8.6137C3.88575 8.93333 3.50971 9.2467 3.1274 9.57887C3.22141 9.65408 3.29662 9.71048 3.36556 9.76689C6.02291 11.8476 8.68025 13.9221 11.3439 15.9841C11.5131 16.1157 11.7638 16.1846 11.9894 16.2097C12.3278 16.2473 12.6036 16.0656 12.8606 15.8587C14.8974 14.2731 16.9281 12.6875 18.9649 11.1018C19.5979 10.6067 20.2372 10.1053 20.9016 9.58514ZM20.3688 21.5871C20.35 21.5557 20.3438 21.5307 20.325 21.5181C18.5952 20.0955 16.8591 18.6665 15.1231 17.2501C15.0792 17.2125 14.9476 17.225 14.8974 17.2689C14.6781 17.4318 14.4775 17.6199 14.2707 17.7953C12.9671 18.8859 10.8676 18.8671 9.58275 17.7452C9.35713 17.5509 9.1315 17.3566 8.89334 17.1561C7.14476 18.6226 5.40244 20.0892 3.62252 21.5871C9.23178 21.5871 14.7909 21.5871 20.3688 21.5871ZM2.41919 11.9981C2.41919 14.4862 2.41919 16.9367 2.41919 19.4186C3.95469 18.1275 5.45258 16.8615 6.96927 15.5892C5.44004 14.3859 3.94842 13.2077 2.41919 11.9981ZM21.616 11.9981C20.0805 13.2077 18.5826 14.3922 17.0597 15.5955C18.5764 16.8364 20.0805 18.0586 21.616 19.312C21.616 16.8552 21.616 14.4549 21.616 11.9981Z" fill="#81D100"/>
</svg>
