<svg width="45" height="60" viewBox="0 0 45 60" fill="none" xmlns="http://www.w3.org/2000/svg">
<path d="M7.16624 59.9883C6.5207 59.648 6.30943 59.1198 6.32117 58.4038C6.35638 56.8428 6.33291 55.2818 6.33291 53.7207C6.33291 52.4883 6.63807 52.1714 7.8822 52.1245C7.95263 52.1245 8.03479 52.101 8.24605 52.0775C8.18737 50.9743 8.19911 49.871 8.03479 48.7794C7.96436 48.3217 7.57704 47.8757 7.2484 47.5118C6.62634 46.8193 5.93385 46.1738 5.27657 45.5165C3.96202 44.1902 3.23432 42.6057 3.293 40.7278C3.3869 37.8991 2.80004 35.2348 1.6146 32.6644C1.13338 31.6198 0.72258 30.54 0.288308 29.4836C-0.228124 28.2278 -0.0638051 27.0541 0.886899 26.0681C1.8376 25.0822 3.01131 24.9062 4.27892 25.3639C5.59347 25.8334 6.62634 26.655 7.50662 27.9578C7.53009 27.6174 7.54183 27.4296 7.54183 27.2301C7.54183 23.4625 7.54183 19.6949 7.54183 15.9273C7.54183 14.0376 8.55122 12.6409 10.2061 12.1714C12.401 11.5494 14.6428 13.0752 14.7719 15.3522C14.854 16.7724 14.8071 18.2043 14.8071 19.6245C14.8071 19.8592 14.8071 20.094 14.8071 20.3757C17.1428 19.8944 18.7507 20.7278 19.6428 22.9813C20.8869 22.547 22.0723 22.6292 23.1756 23.439C24.2789 24.2606 24.631 25.4109 24.6076 26.5846C25.2766 26.5846 25.9221 26.5142 26.5442 26.5963C28.2461 26.8311 29.5019 28.263 29.5371 29.9766C29.5723 31.5142 29.5606 33.0634 29.5489 34.601C29.5489 35.317 29.0559 35.8217 28.4104 35.8334C27.7531 35.8451 27.2249 35.3287 27.2132 34.5893C27.1897 33.2043 27.2132 31.8193 27.2015 30.4343C27.2015 29.4836 26.7907 28.932 26.0512 28.885C25.3353 28.8381 24.678 29.4836 24.6193 30.3639C24.5723 31.1034 24.6076 31.8428 24.5958 32.594C24.5841 33.2747 24.232 33.7442 23.6803 33.8616C22.9057 34.0259 22.2601 33.5095 22.2484 32.6644C22.2249 31.1973 22.2367 29.7301 22.2367 28.2747C22.2367 27.6527 22.2484 27.0306 22.2367 26.3968C22.2249 25.6691 21.8376 25.1761 21.2273 25.0822C20.6404 24.9883 20.124 25.317 19.9127 25.9977C19.7954 26.385 19.7484 26.7958 19.7367 27.2066C19.7132 28.6151 19.7367 30.0235 19.7249 31.4203C19.7132 32.1832 19.2202 32.6879 18.5512 32.6761C17.9057 32.6644 17.4362 32.1714 17.3775 31.4555C17.3658 31.3029 17.3775 31.1386 17.3775 30.986C17.3775 28.7207 17.3892 26.4555 17.3658 24.1902C17.3658 23.8498 17.2953 23.486 17.131 23.1926C16.8493 22.6761 16.2038 22.4649 15.6522 22.6527C15.077 22.8404 14.8188 23.2512 14.8188 23.8498C14.8188 25.9977 14.8188 28.1456 14.8188 30.2935C14.8188 30.5282 14.8188 30.763 14.7954 30.9977C14.7132 31.5846 14.2554 31.9836 13.6803 31.9954C13.1287 32.0071 12.6592 31.655 12.5301 31.1034C12.4714 30.8569 12.4714 30.5987 12.4714 30.3522C12.4714 25.5517 12.4714 20.7395 12.4714 15.939C12.4714 14.9414 12.0019 14.3897 11.1921 14.4015C10.57 14.4132 10.0653 14.824 9.97141 15.4461C9.92446 15.716 9.9362 15.986 9.9362 16.2677C9.9362 22.2653 9.9362 28.2512 9.9362 34.2489C9.9362 34.4836 9.9362 34.7184 9.91272 34.9531C9.8423 35.5634 9.41976 35.9742 8.85638 36.0095C8.25779 36.0564 7.78831 35.7395 7.63573 35.1409C7.45967 34.4602 7.42446 33.7325 7.17798 33.0869C6.67328 31.7606 6.12164 30.4578 5.48784 29.1785C5.11225 28.4038 4.40803 27.8757 3.57469 27.6292C3.28127 27.547 2.81178 27.5588 2.63573 27.7348C2.45967 27.9109 2.4362 28.3921 2.54183 28.6738C3.08174 30.094 3.66859 31.5024 4.26718 32.8991C5.21789 35.1409 5.73432 37.4766 5.62868 39.9062C5.54652 41.7372 6.1099 43.2278 7.50662 44.425C8.03479 44.8827 8.50427 45.4109 9.00896 45.9156C10.0653 46.9602 10.5583 48.2395 10.57 49.7066C10.5817 50.4813 10.57 51.2559 10.57 52.0658C15.4878 52.0658 20.347 52.0658 25.2531 52.0658C25.2531 51.1151 25.2648 50.2113 25.2531 49.2958C25.2296 48.1339 25.5465 47.1128 26.2625 46.1855C26.8024 45.493 27.2601 44.7653 27.2719 43.8146C27.2836 43.1808 27.8705 42.7466 28.4808 42.7818C29.1146 42.817 29.5723 43.2982 29.5841 43.9907C29.6193 45.1174 29.2789 46.1386 28.5747 46.9836C27.7766 47.9343 27.4949 48.9789 27.6005 50.1761C27.6592 50.8099 27.6123 51.4555 27.6123 52.0775C28.9151 52.2653 29.1263 52.5353 29.1381 53.8146C29.1381 55.3522 29.1146 56.9015 29.1615 58.439C29.185 59.1667 28.9503 59.6832 28.293 60.0001C21.2273 59.9883 14.1968 59.9883 7.16624 59.9883ZM8.72728 54.4954C8.72728 55.5635 8.72728 56.5728 8.72728 57.5822C14.7601 57.5822 20.7343 57.5822 26.7202 57.5822C26.7202 56.5259 26.7202 55.5282 26.7202 54.4954C20.7108 54.4954 14.7484 54.4954 8.72728 54.4954Z" fill="#036DB9"/>
<path d="M30.4878 5.10563C30.4878 7.92253 28.2108 10.2113 25.3939 10.1995C22.577 10.1995 20.2883 7.9108 20.2883 5.10563C20.2883 2.30047 22.5888 0 25.3939 0C28.1991 0 30.4878 2.28873 30.4878 5.10563ZM25.3822 7.85211C26.908 7.85211 28.1404 6.63146 28.1404 5.10563C28.1404 3.59155 26.8963 2.34742 25.3705 2.35915C23.8798 2.37089 22.6475 3.60329 22.6357 5.08216C22.624 6.58451 23.8681 7.84038 25.3822 7.85211Z" fill="#81D100"/>
<path d="M11.4385 10.1995C8.62165 10.2113 6.34465 7.93427 6.33292 5.11737C6.33292 2.30047 8.59817 0 11.4151 0C14.2202 0 16.5324 2.277 16.5324 5.08216C16.5442 7.89906 14.2555 10.1878 11.4385 10.1995ZM11.4151 7.85211C12.9292 7.86385 14.185 6.61972 14.185 5.10563C14.185 3.60329 12.9292 2.34742 11.4151 2.34742C9.92446 2.35915 8.69207 3.57981 8.68033 5.07042C8.6686 6.59624 9.88925 7.84038 11.4151 7.85211Z" fill="#81D100"/>
<path d="M44.455 5.11737C44.4432 7.94601 42.1662 10.2113 39.3493 10.1995C36.5442 10.1878 34.2437 7.88732 34.2554 5.08216C34.2554 2.28873 36.5677 0 39.3728 0C42.1897 0.0117371 44.455 2.30047 44.455 5.11737ZM42.0958 5.08216C42.0958 3.55634 40.8517 2.33568 39.3259 2.34742C37.847 2.37089 36.6146 3.60329 36.6029 5.0939C36.5911 6.59624 37.847 7.85211 39.3611 7.85211C40.8986 7.84038 42.1076 6.61972 42.0958 5.08216Z" fill="#81D100"/>
<path d="M25.4057 12.1597C28.2343 12.1715 30.4878 14.4367 30.4878 17.2653C30.4878 20.0705 28.1756 22.371 25.3822 22.3592C22.577 22.3475 20.2883 20.0353 20.2883 17.2419C20.3 14.425 22.5888 12.148 25.4057 12.1597ZM25.4057 14.5071C23.8798 14.5071 22.6357 15.7278 22.6357 17.2419C22.6357 18.7442 23.9033 20.0118 25.4057 20.0001C26.8963 19.9884 28.1287 18.756 28.1404 17.2771C28.1521 15.7395 26.9432 14.5189 25.4057 14.5071Z" fill="#81D100"/>
<path d="M44.455 17.3005C44.4315 20.1174 42.1076 22.3943 39.3141 22.3591C36.509 22.3239 34.2202 19.9882 34.2554 17.1948C34.2906 14.3897 36.6029 12.1361 39.4198 12.1596C42.2367 12.1831 44.4784 14.4601 44.455 17.3005ZM39.3963 14.507C37.8705 14.4953 36.6263 15.7159 36.6146 17.23C36.6029 18.7324 37.8587 20 39.3728 20C40.8634 20 42.0958 18.7793 42.1076 17.2887C42.1193 15.7512 40.9221 14.5188 39.3963 14.507Z" fill="#81D100"/>
<path d="M39.3845 34.4719C36.5676 34.4837 34.2672 32.2184 34.2437 29.4132C34.232 26.6198 36.5207 24.2959 39.3259 24.2724C42.131 24.2489 44.4315 26.5377 44.4432 29.3546C44.4667 32.1832 42.2249 34.4602 39.3845 34.4719ZM42.0958 29.378C42.0958 27.8522 40.8517 26.6198 39.3376 26.6315C37.847 26.6433 36.6263 27.8639 36.6028 29.3546C36.5794 30.8569 37.8235 32.1128 39.3493 32.1128C40.8869 32.1245 42.0958 30.9156 42.0958 29.378Z" fill="#81D100"/>
<path d="M2.65919 17.5235C1.94323 17.5352 1.42679 17.1244 1.3329 16.5376C1.239 15.9977 1.5559 15.3991 2.10755 15.2465C2.88219 15.047 3.65684 14.8826 4.44323 14.7653C5.04182 14.6714 5.54651 15.0939 5.68736 15.6808C5.81647 16.2559 5.52304 16.8545 4.93618 17.0188C4.13806 17.2418 3.3282 17.3826 2.65919 17.5235Z" fill="#036DB9"/>
<path d="M4.88924 12.5704C4.79534 12.5469 4.60755 12.5351 4.4667 12.4647C3.79769 12.1009 3.14041 11.737 2.49487 11.3262C1.95497 10.9741 1.81412 10.3168 2.11928 9.78866C2.43619 9.23702 3.08173 9.01401 3.68032 9.33091C4.33759 9.67129 4.9714 10.0469 5.59346 10.4342C6.07468 10.7394 6.22726 11.2206 6.06295 11.7605C5.91036 12.2652 5.52304 12.5469 4.88924 12.5704Z" fill="#036DB9"/>
<path d="M29.5606 39.3076C29.5606 39.9766 29.0324 40.4813 28.3634 40.4578C27.7296 40.4343 27.2249 39.9296 27.2132 39.2841C27.2015 38.6503 27.7531 38.0869 28.3986 38.0869C29.0442 38.0987 29.5724 38.6386 29.5606 39.3076Z" fill="#036DB9"/>
</svg>
