<svg width="24" height="12" viewBox="0 0 24 12" fill="none" xmlns="http://www.w3.org/2000/svg">
<path d="M0 7.17234C0.0942898 7.16606 0.18858 7.15977 0.282871 7.15977C6.58146 7.15977 12.8738 7.15977 19.1723 7.15977C19.2603 7.15977 19.3546 7.15977 19.5118 7.15977C18.4369 8.22839 17.4185 9.25301 16.4065 10.2588C16.9722 10.8308 17.5191 11.3777 18.0471 11.9057C20.0272 9.91933 22.0199 7.92038 24 5.94028C22.0388 3.97905 20.0398 1.98009 18.0597 0C17.538 0.521739 16.9848 1.06862 16.4065 1.64694C17.4123 2.6527 18.4369 3.67103 19.5118 4.73965C19.3609 4.73965 19.2792 4.73965 19.1975 4.73965C12.8863 4.73965 6.57517 4.73965 0.257725 4.73965C0.16972 4.73965 0.0880032 4.72708 0 4.72708C0 5.53798 0 6.35516 0 7.17234Z" fill="white"/>
</svg>
