<svg width="62" height="62" viewBox="0 0 62 62" fill="none" xmlns="http://www.w3.org/2000/svg">
<g filter="url(#filter0_d_192_5919)">
<path d="M29.1714 5.10919C29.7241 5.03729 30.2811 5 30.8384 5C31.1447 5 31.451 5 31.7573 5C31.9219 5 32.0831 5.03371 32.2468 5.05008C33.2401 5.21703 34.2502 5.3172 35.2185 5.57597C41.1285 7.1286 45.7613 12.2289 46.7547 18.239C46.8465 18.8234 46.9216 19.4077 46.9967 20.0004C46.9967 20.6681 46.9967 21.3359 46.9967 22.0037C46.9466 22.3877 46.9133 22.7634 46.8548 23.1473C46.3122 26.912 44.7012 30.1341 41.8881 32.6968C37.8396 36.3947 33.0649 37.7136 27.6974 36.6368C23.5321 35.8021 20.2265 33.5399 17.8224 30.0507C15.3766 26.503 14.5419 22.563 15.2347 18.3142C15.769 15.0336 17.2381 12.2038 19.5587 9.83317C21.9628 7.37902 24.8593 5.84309 28.24 5.25042C28.549 5.19305 28.8603 5.14967 29.1714 5.10919ZM30.5476 26.2958C30.6869 26.163 30.9028 26.1407 31.0531 26.2609C32.2385 27.1291 33.4154 28.0056 34.6008 28.8737C35.4522 29.4997 36.0365 29.2744 36.2536 28.2309C36.8129 25.6182 37.3638 23.0054 37.9231 20.3927C38.2319 18.9319 38.5491 17.4627 38.8496 15.9936C38.9331 15.5762 38.9915 15.1254 38.6159 14.7999C38.2403 14.4827 37.8479 14.6663 37.4723 14.8082C33.6575 16.2774 29.8511 17.7465 26.0363 19.224C24.7508 19.7249 23.4569 20.2174 22.1714 20.7266C21.8709 20.8434 21.5203 21.002 21.537 21.3777C21.5537 21.77 21.9294 21.8451 22.2382 21.9453C23.4069 22.3126 24.5838 22.6799 25.7441 23.0555C25.9946 23.139 26.1782 23.114 26.4119 22.972C29.2751 21.144 32.155 19.3326 35.0348 17.5212C35.1768 17.4293 35.3187 17.3292 35.4689 17.2874C35.4857 17.2823 35.5033 17.2791 35.5214 17.2775C35.6751 17.2639 35.7801 17.481 35.6776 17.5963C35.5691 17.7215 35.4355 17.8217 35.3103 17.9385C33.0648 19.967 30.811 21.9954 28.5656 24.0322C28.4487 24.1407 28.3319 24.3076 28.3152 24.4579C28.2317 25.301 28.1816 26.1357 28.1315 26.9788C28.1193 27.1374 28.1093 27.296 28.1 27.455C28.0728 27.9161 28.4575 28.2917 28.791 27.9722C29.3792 27.4134 29.9609 26.8546 30.5476 26.2958Z" fill="url(#paint0_linear_192_5919)"/>
</g>
<defs>
<filter id="filter0_d_192_5919" x="0" y="0" width="61.9967" height="62" filterUnits="userSpaceOnUse" color-interpolation-filters="sRGB">
<feFlood flood-opacity="0" result="BackgroundImageFix"/>
<feColorMatrix in="SourceAlpha" type="matrix" values="0 0 0 0 0 0 0 0 0 0 0 0 0 0 0 0 0 0 127 0" result="hardAlpha"/>
<feOffset dy="10"/>
<feGaussianBlur stdDeviation="7.5"/>
<feComposite in2="hardAlpha" operator="out"/>
<feColorMatrix type="matrix" values="0 0 0 0 0.505882 0 0 0 0 0.819608 0 0 0 0 0 0 0 0 0.3 0"/>
<feBlend mode="normal" in2="BackgroundImageFix" result="effect1_dropShadow_192_5919"/>
<feBlend mode="normal" in="SourceGraphic" in2="effect1_dropShadow_192_5919" result="shape"/>
</filter>
<linearGradient id="paint0_linear_192_5919" x1="15" y1="21" x2="46.9967" y2="21" gradientUnits="userSpaceOnUse">
<stop stop-color="#81D100"/>
<stop offset="1" stop-color="#71B800"/>
</linearGradient>
</defs>
</svg>
